HIERARCHY
ROOT hip
{
  OFFSET 0 0 0
  CHANNELS 6 Xposition Yposition Zposition Zrotation Yrotation Xrotation
  JOINT abdomen
  {
    OFFSET 0 20.6881 -0.73152
    CHANNELS 3 Zrotation Xrotation Yrotation
    JOINT chest
    {
      OFFSET 0 11.7043 -0.48768
      CHANNELS 3 Zrotation Xrotation Yrotation
      JOINT neck
      {
        OFFSET 0 22.1894 -2.19456
        CHANNELS 3 Zrotation Xrotation Yrotation
        JOINT head
        {
          OFFSET -0.24384 7.07133 1.2192
          CHANNELS 3 Zrotation Xrotation Yrotation
          JOINT leftEye
          {
            OFFSET 4.14528 8.04674 8.04672
            CHANNELS 3 Zrotation Xrotation Yrotation
            End Site
            {
              OFFSET 1 0 0
            }
          }
          JOINT rightEye
          {
            OFFSET -3.6576 8.04674 8.04672
            CHANNELS 3 Zrotation Xrotation Yrotation
            End Site
            {
              OFFSET 1 0 0
            }
          }
        }
      }
      JOINT rCollar
      {
        OFFSET -2.68224 19.2634 -4.8768
        CHANNELS 3 Zrotation Xrotation Yrotation
        JOINT rShldr
        {
          OFFSET -8.77824 -1.95073 1.46304
          CHANNELS 3 Zrotation Xrotation Yrotation
          JOINT rForeArm
          {
            OFFSET -28.1742 -1.7115 0.48768
            CHANNELS 3 Zrotation Xrotation Yrotation
            JOINT rHand
            {
              OFFSET -22.5879 0.773209 7.07136
              CHANNELS 3 Zrotation Xrotation Yrotation
              JOINT rThumb1
              {
                OFFSET -1.2192 -0.487915 3.41376
                CHANNELS 3 Zrotation Xrotation Yrotation
                JOINT rThumb2
                {
                  OFFSET -3.37035 -0.52449 3.41376
                  CHANNELS 3 Zrotation Xrotation Yrotation
                  End Site
                  {
                    OFFSET -1.78271 -1.18214 1.43049
                  }
                }
              }
              JOINT rIndex1
              {
                OFFSET -7.75947 0.938293 5.60832
                CHANNELS 3 Zrotation Xrotation Yrotation
                JOINT rIndex2
                {
                  OFFSET -2.54057 -0.884171 1.56538
                  CHANNELS 3 Zrotation Xrotation Yrotation
                  End Site
                  {
                    OFFSET -1.62519 -0.234802 1.16502
                  }
                }
              }
              JOINT rMid1
              {
                OFFSET -8.24714 1.18213 3.41376
                CHANNELS 3 Zrotation Xrotation Yrotation
                JOINT rMid2
                {
                  OFFSET -3.10165 -0.590103 1.0647
                  CHANNELS 3 Zrotation Xrotation Yrotation
                  End Site
                  {
                    OFFSET -2.48547 -0.328903 0.83742
                  }
                }
              }
              JOINT rRing1
              {
                OFFSET -8.82822 0.546677 1.51678
                CHANNELS 3 Zrotation Xrotation Yrotation
                JOINT rRing2
                {
                  OFFSET -2.60934 -0.819778 -0.0198488
                  CHANNELS 3 Zrotation Xrotation Yrotation
                  End Site
                  {
                    OFFSET -2.33842 -0.294052 0.168128
                  }
                }
              }
              JOINT rPinky1
              {
                OFFSET -8.27202 -0.0477905 -0.4584
                CHANNELS 3 Zrotation Xrotation Yrotation
                JOINT rPinky2
                {
                  OFFSET -1.82734 -0.647385 -0.700984
                  CHANNELS 3 Zrotation Xrotation Yrotation
                  End Site
                  {
                    OFFSET -1.69225 -0.51767 -0.607171
                  }
                }
              }
            }
          }
        }
      }
      JOINT lCollar
      {
        OFFSET 2.68224 19.2634 -4.8768
        CHANNELS 3 Zrotation Xrotation Yrotation
        JOINT lShldr
        {
          OFFSET 8.77824 -1.95073 1.46304
          CHANNELS 3 Zrotation Xrotation Yrotation
          JOINT lForeArm
          {
            OFFSET 28.1742 -1.7115 0.48768
            CHANNELS 3 Zrotation Xrotation Yrotation
            JOINT lHand
            {
              OFFSET 22.5879 0.773209 7.07136
              CHANNELS 3 Zrotation Xrotation Yrotation
              JOINT lThumb1
              {
                OFFSET 1.2192 -0.487915 3.41376
                CHANNELS 3 Zrotation Xrotation Yrotation
                JOINT lThumb2
                {
                  OFFSET 3.37035 -0.52449 3.41376
                  CHANNELS 3 Zrotation Xrotation Yrotation
                  End Site
                  {
                    OFFSET 1.78271 -1.18214 1.43049
                  }
                }
              }
              JOINT lIndex1
              {
                OFFSET 7.75947 0.938293 5.60832
                CHANNELS 3 Zrotation Xrotation Yrotation
                JOINT lIndex2
                {
                  OFFSET 2.54057 -0.884171 1.56538
                  CHANNELS 3 Zrotation Xrotation Yrotation
                  End Site
                  {
                    OFFSET 1.62519 -0.234802 1.16502
                  }
                }
              }
              JOINT lMid1
              {
                OFFSET 8.24714 1.18213 3.41376
                CHANNELS 3 Zrotation Xrotation Yrotation
                JOINT lMid2
                {
                  OFFSET 3.10165 -0.590103 1.0647
                  CHANNELS 3 Zrotation Xrotation Yrotation
                  End Site
                  {
                    OFFSET 2.48547 -0.328903 0.83742
                  }
                }
              }
              JOINT lRing1
              {
                OFFSET 8.82822 0.546677 1.51678
                CHANNELS 3 Zrotation Xrotation Yrotation
                JOINT lRing2
                {
                  OFFSET 2.60934 -0.819778 -0.0198488
                  CHANNELS 3 Zrotation Xrotation Yrotation
                  End Site
                  {
                    OFFSET 2.33842 -0.294052 0.168128
                  }
                }
              }
              JOINT lPinky1
              {
                OFFSET 8.27202 -0.0477905 -0.4584
                CHANNELS 3 Zrotation Xrotation Yrotation
                JOINT lPinky2
                {
                  OFFSET 1.82734 -0.647385 -0.700984
                  CHANNELS 3 Zrotation Xrotation Yrotation
                  End Site
                  {
                    OFFSET 1.69225 -0.51767 -0.607171
                  }
                }
              }
            }
          }
        }
      }
    }
  }
  JOINT rButtock
  {
    OFFSET -8.77824 4.35084 1.2192
    CHANNELS 3 Zrotation Xrotation Yrotation
    JOINT rThigh
    {
      OFFSET 0 -1.70687 -2.19456
      CHANNELS 3 Zrotation Xrotation Yrotation
      JOINT rShin
      {
        OFFSET 0 -36.8199 0.73152
        CHANNELS 3 Zrotation Xrotation Yrotation
        JOINT rFoot
        {
          OFFSET 0.73152 -45.1104 -5.12064
          CHANNELS 3 Zrotation Xrotation Yrotation
          End Site
          {
            OFFSET -1.1221 -3.69964 12.103
          }
        }
      }
    }
  }
  JOINT lButtock
  {
    OFFSET 8.77824 4.35084 1.2192
    CHANNELS 3 Zrotation Xrotation Yrotation
    JOINT lThigh
    {
      OFFSET 0 -1.70687 -2.19456
      CHANNELS 3 Zrotation Xrotation Yrotation
      JOINT lShin
      {
        OFFSET 0 -36.8199 0.73152
        CHANNELS 3 Zrotation Xrotation Yrotation
        JOINT lFoot
        {
          OFFSET -0.73152 -45.1104 -5.12064
          CHANNELS 3 Zrotation Xrotation Yrotation
          End Site
          {
            OFFSET 1.1221 -3.69964 12.103
          }
        }
      }
    }
  }
}
MOTION
Frames:	5
Frame Time:	0.00833333
0.0 0.0 0.0 0.0 0.0 0.0 0.0 0.0 0.0 0.0 0.0 0.0 0.0 0.0 0.0 0.0 0.0 0.0 0.0 0.0 0.0 0.0 0.0 0.0 0.0 0.0 0.0 0.0 0.0 0.0 0.0 0.0 0.0 0.0 0.0 0.0 0.0 0.0 0.0 0.0 0.0 0.0 0.0 0.0 0.0 0.0 0.0 0.0 0.0 0.0 0.0 0.0 0.0 0.0 0.0 0.0 0.0 0.0 0.0 0.0 0.0 0.0 0.0 0.0 0.0 0.0 0.0 0.0 0.0 0.0 0.0 0.0 0.0 0.0 0.0 0.0 0.0 0.0 0.0 0.0 0.0 0.0 0.0 0.0 0.0 0.0 0.0 0.0 0.0 0.0 0.0 0.0 0.0 0.0 0.0 0.0 0.0 0.0 0.0 0.0 0.0 0.0 0.0 0.0 0.0 0.0 0.0 0.0 0.0 0.0 0.0 0.0 0.0 0.0 0.0 0.0 0.0 0.0 0.0 0.0 0.0 0.0 0.0 0.0 0.0 0.0 0.0 0.0 0.0 0.0 0.0 0.0
-16.3353 79.1147 -8.2489 173.33208 53.203203 169.964066 -7.140934 13.73681 -86.671918 6.067848 -3.846616 76.714632 13.001804 8.508978 63.327202 13.888459 8.79704 -62.071668 0.002794 0.0 0.003059 -0.002325 -0.0 0.000543 -159.222793 -48.725246 170.565893 -66.898827 -5.51425 -50.049336 1.820822 -21.037174 -122.970326 -175.82006 -4.245676 142.886567 7.793073 -7.785545 -0.67447 -14.023221 13.953952 7.380944 37.215001 -57.918036 -0.64215 -178.723311 -43.708001 106.628978 0.539477 -1.590268 -0.294329 7.022661 -11.631689 -1.181368 -145.123134 1.973755 -179.748243 10.057408 -0.124334 -9.007066 -152.202821 37.329968 -147.581765 -162.700718 55.76698 -146.853275 155.548718 -3.804051 -161.900528 38.964301 20.636062 12.730796 -179.865913 18.646111 119.490363 12.245678 -26.059423 6.849121 7.758581 7.4391 -1.681893 -11.144765 -12.248537 3.0677 138.764703 4.488183 -115.032198 154.061213 3.965394 -117.352099 -23.906692 -61.333304 -1.402171 178.695294 -46.295182 -141.930808 145.12021 0.225912 179.200962 146.612174 -47.257662 168.977732 13.274378 -25.41184 12.629604 145.783208 8.27814 142.729625 0.000794 0.001599 -0.001021 -1.351013 -15.068575 177.30725 3.884801 -53.413366 17.651178 70.671665 -24.525954 166.870295 -0.000972 0.001459 0.00125 17.284967 -42.542287 12.136996 -19.576167 57.081535 91.873579 -71.757783 38.574592 6.957144
-15.6237 79.1284 -8.9613 173.058085 52.378385 169.869998 -9.551508 15.500435 2.188067 -1.557418 -8.270058 -12.194378 12.778099 21.039018 141.586586 3.726647 -2.271542 -139.269512 0.001198 -0.0 -0.0001 0.001198 -0.0 -0.0001 -155.613526 -4.236144 161.99195 115.355756 -17.765622 -175.621254 101.211129 28.854346 104.722201 -134.873177 57.025859 110.82012 4.530401 -4.514318 -0.519818 -134.145633 -32.490426 119.12513 -16.40186 21.464362 11.218163 -9.950669 23.633565 6.718549 -36.035324 51.723541 29.83161 -6.189843 24.205872 5.441544 -145.098858 -1.522083 -178.649957 11.725701 58.790045 -1.662164 1.299218 3.491443 1.192672 -147.911418 13.352344 -144.092083 85.53741 68.181375 -88.68881 -81.579397 -35.945822 -98.482215 10.54993 -6.732997 -58.182445 8.16295 -41.762223 9.479226 178.927229 -16.453764 -89.422497 -170.80784 -26.272558 -101.952154 166.823584 -43.9737 -122.060015 170.078161 -36.466772 -116.853118 -7.90448 -24.807547 3.013446 179.778649 -48.714146 -141.44231 145.113505 -0.356153 179.01593 54.78324 87.582981 -68.027438 -32.023206 83.320031 -6.224453 83.302511 -53.335753 81.794187 -0.000518 -0.002007 0.000666 -2.528538 -12.666892 60.612071 41.83794 12.78066 8.748014 -164.53793 5.537907 114.20546 -179.899604 75.74908 -0.077379 -166.106479 31.995965 -25.024636 -38.008284 45.663592 111.906742 -68.396925 34.785484 7.548274
-14.9279 79.12400000000001 -9.8223 172.415932 51.243181 169.28204 -9.47701 15.077806 -0.0 -1.54354 -8.123556 -10.270539 13.077866 8.290056 63.159661 14.579576 9.289715 -61.96952 -0.001115 -0.0 0.004018 -0.000298 -0.0 0.001214 -159.220609 -48.028488 170.415211 111.70598 15.185244 -133.271253 -7.383063 -13.6383 89.040061 -6.001785 -13.269267 -4.015818 88.928046 -50.831572 37.600053 -55.759499 29.050125 15.897361 -69.681733 43.291402 57.342937 -169.493658 -18.531921 113.37614 -39.289166 53.365547 32.879157 -42.047271 58.500909 36.276314 -74.841442 72.959851 92.828419 -159.799761 -3.496544 176.752332 -157.325124 57.246259 -150.515479 -113.00113 -42.617727 -110.731899 157.796679 -22.115328 -165.467912 -77.988593 64.072617 106.610169 -176.63367 -67.028899 -79.418567 158.94081 17.436088 -136.779428 176.598361 -14.21309 -89.691299 71.769573 4.796211 -20.503787 8.572568 12.508866 -5.449048 -8.638749 2.07662 0.269918 160.889519 -7.337313 -143.346225 175.368936 -39.008148 -142.900952 -0.003037 0.876538 -0.274809 148.999181 42.730347 -163.651236 156.865921 55.54141 150.328879 -33.348251 74.768607 -0.313345 -0.0 -7.9e-05 -0.00077 -3.020029 -12.182397 57.442253 34.682691 23.654442 -99.821387 131.508665 -19.545732 -2.391714 0.000269 -0.001589 -0.000345 13.180103 -41.157208 8.959925 -32.192051 45.264373 -29.179092 0.760381 -57.41465 107.319529
-14.290600000000001 79.0542 -10.7375 171.536807 50.029743 168.549731 -7.330429 11.665782 -106.306422 5.803375 -2.47988 95.556062 15.211371 16.402017 111.764831 10.108029 0.163176 -110.195121 -0.00317 -0.0 0.001183 0.004391 -0.0 -0.000571 -153.590718 -75.693364 -178.260357 16.234115 17.475843 -75.984231 -125.537358 -70.681504 102.23198 -178.886451 -16.72393 143.972217 88.928835 -50.831623 37.598972 -126.779815 27.47111 89.118154 -160.101627 -33.161819 122.700857 -86.794383 56.348497 69.869879 -160.673518 -6.667668 143.245622 -0.438736 10.130146 2.038566 -145.101071 -1.519574 -178.649231 -138.692604 -60.479465 -160.887061 -156.38353 53.734544 -150.115848 -147.957158 10.821258 -141.767717 143.474903 38.50719 -147.925758 36.817934 -29.260419 -19.934929 48.080133 25.313416 55.508661 174.181413 -28.620496 -148.916137 -83.254111 -50.259001 -33.615265 15.250259 -39.561387 29.35399 -2.325692 -3.867918 1.258933 160.548723 -12.98446 -110.188672 -6.909715 -21.6238 2.81166 11.687592 33.733403 -9.253011 145.118873 0.184986 179.18743 -11.944206 52.755926 2.715987 26.567355 -38.85866 25.609488 153.50564 36.048982 147.885385 -179.993721 75.749878 -0.004296 173.201759 64.165603 7.544851 -7.142505 47.401335 -89.067552 -38.894299 -67.962434 52.676521 -0.0 -0.001741 -0.000341 10.1438 -40.275509 15.470013 -26.278562 56.924486 -127.697541 26.415824 -2.450883 177.358135
